<?xml version="1.0" ?><!DOCTYPE svg  PUBLIC '-//W3C//DTD SVG 1.1//EN'  'http://www.w3.org/Graphics/SVG/1.1/DTD/svg11.dtd'>
<svg enable-background="new 0 0 87 56" viewBox="0 0 87 56" xml:space="preserve" xmlns="http://www.w3.org/2000/svg" xmlns:xlink="http://www.w3.org/1999/xlink"><g><path d="M86,52.636C86,53.941,84.84,55,83.407,55H3.593C2.161,55,1,53.941,1,52.636V3.365C1,2.059,2.161,1,3.593,1   h79.814C84.84,1,86,2.059,86,3.365V52.636z" fill="#F1F2F2"/><polygon clip-rule="evenodd" fill="#0078BE" fill-rule="evenodd" points="29.363,31.361 40.378,31.361 46.544,24.757    57.599,24.757 48.213,35.229 13.5,35.229 13.5,28.234 32.117,28.234 29.363,31.361  "/><polygon clip-rule="evenodd" fill="#FFE236" fill-rule="evenodd" points="57.599,24.757 46.544,24.757 40.378,31.4 29.286,31.4    38.671,20.927 73.423,20.927 73.423,27.883 54.806,27.883 57.599,24.757  "/><path clip-rule="evenodd" d="M68.963,18.348c-0.504,0.313-1.164,0.469-1.785,0.469   c-1.783,0-3.374-1.329-3.374-3.165c0-1.837,1.436-3.166,3.258-3.166c0.659,0,1.397,0.117,1.901,0.43v1.954   c-0.389-0.352-0.97-0.469-1.629-0.469c-0.621,0-1.358,0.508-1.358,1.329c0,0.704,0.737,1.133,1.358,1.133   c0.697,0,1.125-0.04,1.629-0.43V18.348L68.963,18.348z" fill="#0078BE" fill-rule="evenodd"/><path clip-rule="evenodd" d="M73.5,16.863v1.485c-1.59,1.172-3.413,0.195-3.413-1.172V14.44   h-0.775v-1.797h0.775v-1.446l2.172-1.172v2.618H73.5v1.641h-1.125v2.54C72.375,17.293,73.15,17.254,73.5,16.863L73.5,16.863z" fill="#0078BE" fill-rule="evenodd"/><path clip-rule="evenodd" d="M57.056,16.863v1.485c-1.629,1.172-3.413,0.195-3.413-1.172V14.44   h-0.776v-1.797h0.776v-1.446l2.211-1.172v2.618h1.202v1.641h-1.164v2.54C55.892,17.293,56.706,17.254,57.056,16.863L57.056,16.863z   " fill="#0078BE" fill-rule="evenodd"/><path clip-rule="evenodd" d="M38.943,18.348c-0.504,0.313-1.086,0.469-1.746,0.469   c-1.823,0-3.374-1.329-3.374-3.165c0-1.837,1.435-3.166,3.219-3.166c0.659,0,1.396,0.117,1.901,0.43v1.954   c-0.427-0.352-0.931-0.469-1.59-0.469s-1.396,0.508-1.396,1.329c0,0.704,0.775,1.133,1.396,1.133c0.659,0,1.086-0.04,1.59-0.43   V18.348L38.943,18.348z" fill="#0078BE" fill-rule="evenodd"/><path clip-rule="evenodd" d="M33.396,14.753V18.7h-2.172V15.3c0-1.211-1.745-1.172-1.745,0   V18.7h-2.172v-6.057h2.211v0.508C31.341,11.783,33.396,13.034,33.396,14.753L33.396,14.753z" fill="#0078BE" fill-rule="evenodd"/><path clip-rule="evenodd" d="M52.557,14.753V18.7h-2.173V15.3c0-1.211-1.745-1.172-1.745,0   V18.7h-2.172v-6.057h2.172v0.508C50.5,11.783,52.557,13.034,52.557,14.753L52.557,14.753z" fill="#0078BE" fill-rule="evenodd"/><path clip-rule="evenodd" d="M55.892,16.824v-2.54h1.164v-1.641h-1.202v-2.618l-2.211,1.172   v1.446h-0.776v1.797h0.776v2.736c0,1.367,1.784,2.344,3.413,1.172v-1.485C56.706,17.254,55.892,17.293,55.892,16.824L55.892,16.824   z" fill="#0078BE" fill-rule="evenodd"/><path clip-rule="evenodd" d="M38.943,16.434c-0.504,0.39-0.931,0.43-1.59,0.43   c-0.62,0-1.396-0.43-1.396-1.133c0-0.821,0.736-1.329,1.396-1.329s1.163,0.117,1.59,0.469v-1.954   c-0.504-0.313-1.242-0.43-1.901-0.43c-1.784,0-3.219,1.329-3.219,3.166c0,1.836,1.551,3.165,3.374,3.165   c0.659,0,1.241-0.156,1.746-0.469V16.434L38.943,16.434z" fill="#0078BE" fill-rule="evenodd"/><path clip-rule="evenodd" d="M29.518,13.151v-0.508h-2.211V18.7h2.172V15.3   c0-1.172,1.745-1.211,1.745,0V18.7h2.172v-3.947C33.396,13.034,31.341,11.783,29.518,13.151L29.518,13.151z" fill="#0078BE" fill-rule="evenodd"/><path clip-rule="evenodd" d="M48.639,13.151v-0.508h-2.172V18.7h2.172V15.3   c0-1.172,1.745-1.211,1.745,0V18.7h2.173v-3.947C52.557,13.034,50.5,11.783,48.639,13.151L48.639,13.151z" fill="#0078BE" fill-rule="evenodd"/><path clip-rule="evenodd" d="M68.963,16.434c-0.504,0.39-0.932,0.43-1.629,0.43   c-0.621,0-1.358-0.43-1.358-1.133c0-0.821,0.737-1.329,1.358-1.329c0.659,0,1.24,0.117,1.629,0.469v-1.954   c-0.504-0.313-1.242-0.43-1.901-0.43c-1.822,0-3.258,1.329-3.258,3.166c0,1.836,1.591,3.165,3.374,3.165   c0.621,0,1.281-0.156,1.785-0.469V16.434L68.963,16.434z" fill="#0078BE" fill-rule="evenodd"/><path clip-rule="evenodd" d="M72.375,16.824v-2.54H73.5v-1.641h-1.241v-2.618l-2.172,1.172   v1.446h-0.775v1.797h0.775v2.736c0,1.367,1.823,2.344,3.413,1.172v-1.485C73.15,17.254,72.375,17.293,72.375,16.824L72.375,16.824z   " fill="#0078BE" fill-rule="evenodd"/><path d="M42.666,12.448c-1.784,0-3.336,1.407-3.336,3.204c0,1.836,1.552,3.205,3.375,3.205   c1.822,0,3.336-1.29,3.336-3.126C46.041,13.854,44.527,12.448,42.666,12.448z M42.705,16.941c-0.66,0-1.202-0.547-1.202-1.29   c0-0.781,0.542-1.211,1.202-1.211c0.659,0,1.241,0.43,1.241,1.29C43.946,16.395,43.364,16.941,42.705,16.941z" fill="#0078BE"/><path d="M58.142,12.917l-0.349,1.681c0.969-0.469,2.287-0.547,2.947-0.508c0.737,0.039,0.504,0.586-0.078,0.586   c-1.124,0-2.948,0.391-3.219,1.993c-0.466,2.696,2.947,2.423,3.878,1.836l0.078,0.196h2.017v-4.142   C63.416,12.604,60.313,12.174,58.142,12.917z M61.244,16.785c0,0.82-1.59,1.055-1.59,0.195c0-0.782,1.163-1.016,1.59-0.938V16.785z   " fill="#0078BE"/><path d="M21.49,12.917l-0.31,1.681c0.892-0.469,2.249-0.547,2.909-0.508c0.698,0.039,0.465,0.586-0.117,0.586   c-1.125,0-2.909,0.391-3.18,1.993c-0.543,2.696,2.987,2.423,3.878,1.836l0.039,0.196h2.056v-4.142   C26.764,12.604,23.662,12.174,21.49,12.917z M24.593,16.785c0,0.82-1.629,1.055-1.629,0.195c0-0.782,1.164-1.016,1.629-0.938   V16.785z" fill="#0078BE"/><path d="M22.963,16.98c0,0.859,1.629,0.625,1.629-0.195v-0.742C24.127,15.964,22.963,16.199,22.963,16.98z" fill="#FFFFFF"/><path d="M19.202,13.972c1.861-1.68,0.388-4.376-1.629-4.376h-4.033v9.065h4.344   C20.481,18.622,21.528,15.417,19.202,13.972z M16.021,11.432c0-0.039,0.698-0.078,0.97,0c1.125,0.508,0.737,1.719,0.039,1.719   h-1.008V11.432z M17.029,16.863h-1.008v-1.836h0.97C18.192,15.027,18.309,16.863,17.029,16.863z" fill="#0078BE"/><polygon clip-rule="evenodd" fill="#0078BE" fill-rule="evenodd" points="17.728,43.707 19.512,41.129 19.512,46.248    21.839,46.248 21.877,37.379 19.512,37.379 17.728,40.033 15.904,37.379 13.539,37.379 13.578,46.248 15.904,46.248 15.904,41.129    17.728,43.707  "/><path clip-rule="evenodd" d="M43.016,42.693c0.232-0.51,0.736-0.939,1.396-0.939   c0.35,0,0.737,0.156,1.009,0.352v-1.914c-0.193-0.234-0.505-0.313-0.814-0.313c-0.543,0-1.279,0.313-1.59,0.703v-0.625h-2.095   v6.291h2.095V42.693L43.016,42.693z" fill="#0078BE" fill-rule="evenodd"/><path clip-rule="evenodd" d="M25.174,45.857c0.737,0.313,1.628,0.43,2.21,0.43   c2.25,0,2.909-1.172,2.909-2.148c0-1.135-1.164-1.76-2.211-1.916c-0.155,0-0.582-0.117-0.582-0.313   c0-0.156,0.117-0.352,0.621-0.352c0.427,0,1.203,0.156,1.59,0.352l-0.077-1.641c-0.582-0.195-1.396-0.354-2.017-0.354   c-1.28,0-2.405,0.783-2.405,2.033c0,0.979,0.698,1.484,1.823,1.719c0.465,0.039,0.892,0.236,0.892,0.471   c0,0.313-0.31,0.389-0.621,0.389c-0.271,0-0.969,0.08-2.133-0.389V45.857L25.174,45.857z" fill="#0078BE" fill-rule="evenodd"/><path clip-rule="evenodd" d="M33.125,44.334v-2.58h1.203v-1.68h-1.28v-2.695l-2.211,1.172   v1.523h-0.776v1.797h0.776v2.814c0,1.406,1.823,2.344,3.491,1.172v-1.523C33.979,44.686,33.125,44.762,33.125,44.334L33.125,44.334   z" fill="#0078BE" fill-rule="evenodd"/><polygon clip-rule="evenodd" fill="#0078BE" fill-rule="evenodd" points="24.786,46.17 24.786,40.074 22.459,40.074 22.459,46.17    24.786,46.17  "/><path clip-rule="evenodd" d="M23.623,39.879c0.698,0,1.28-0.586,1.28-1.291   c0-0.664-0.582-1.209-1.28-1.209c-0.66,0-1.203,0.545-1.203,1.209C22.42,39.293,22.963,39.879,23.623,39.879L23.623,39.879z" fill="#0078BE" fill-rule="evenodd"/><path clip-rule="evenodd" d="M61.865,45.857c0.736,0.313,1.629,0.43,2.21,0.43   c2.25,0,2.948-1.172,2.948-2.148c0-1.135-1.164-1.76-2.25-1.916c-0.154,0-0.582-0.117-0.582-0.313c0-0.156,0.117-0.352,0.66-0.352   c0.426,0,1.163,0.156,1.59,0.352l-0.116-1.641c-0.581-0.195-1.396-0.354-2.017-0.354c-1.28,0-2.405,0.783-2.405,2.033   c0,0.979,0.698,1.484,1.823,1.719c0.465,0.039,0.893,0.236,0.893,0.471c0,0.313-0.311,0.389-0.621,0.389   c-0.271,0-0.97,0.08-2.133-0.389V45.857L61.865,45.857z" fill="#0078BE" fill-rule="evenodd"/><path clip-rule="evenodd" d="M55.039,43.668c-0.737,0.549-1.319,0.666-2.289,0.666   c-1.473,0-2.792-1.213-2.792-2.463c0-1.367,0.736-2.658,2.792-2.658c0.932,0,1.707,0.158,2.289,0.703v-2.109   c-0.737-0.428-1.746-0.545-2.637-0.545c-2.678,0-4.732,1.914-4.732,4.531c0,2.58,2.249,4.533,4.887,4.533   c0.892,0,1.745-0.195,2.482-0.625V43.668L55.039,43.668z" fill="#0078BE" fill-rule="evenodd"/><path clip-rule="evenodd" d="M69.506,40.543v-3.164h-2.172v8.869h2.172V42.77   c0-1.172,1.783-1.211,1.783,0v3.479H73.5v-4.025C73.5,40.426,71.405,39.176,69.506,40.543L69.506,40.543z" fill="#0078BE" fill-rule="evenodd"/><path d="M36.461,43.396h4.033c0-2.111-0.854-3.48-2.986-3.48c-2.017,0-3.219,1.525-3.219,3.246   c0,1.875,1.435,3.242,3.452,3.242c1.746,0,2.638-0.703,2.638-0.703v-1.797c-0.737,0.389-1.552,0.623-2.133,0.623   C37.081,44.527,36.461,44.217,36.461,43.396z M37.392,41.402c0.426,0,0.97,0.195,0.97,0.781h-1.979   C36.5,41.598,36.965,41.402,37.392,41.402z" fill="#0078BE"/><path d="M56.085,40.27l-0.31,1.68c0.97-0.469,2.327-0.547,2.986-0.508c0.737,0.039,0.504,0.625-0.077,0.625   c-1.164,0-3.025,0.391-3.258,1.992c-0.505,2.736,2.986,2.502,3.916,1.916l0.079,0.156h2.094V41.91   C61.516,39.916,58.335,39.527,56.085,40.27z M59.266,44.176c0,0.861-1.629,1.057-1.629,0.197c0-0.783,1.202-0.977,1.629-0.939   V44.176z" fill="#0078BE"/></g></svg>
