<?xml version="1.0" ?><!DOCTYPE svg  PUBLIC '-//W3C//DTD SVG 1.1//EN'  'http://www.w3.org/Graphics/SVG/1.1/DTD/svg11.dtd'><svg enable-background="new 0 0 48 48"  viewBox="0 0 48 48" xml:space="preserve" xmlns="http://www.w3.org/2000/svg" xmlns:xlink="http://www.w3.org/1999/xlink"><g><path d="M26.078,23.185c-1.396,0-2.526,1.132-2.526,2.526v2.526h2.499h0.027c1.396,0,2.525-1.13,2.525-2.526   C28.604,24.316,27.475,23.185,26.078,23.185z" fill="#241F20"/><path d="M0,9v5.75v2.211v13.445v4.031V35v4h48v-4v-0.562v-4.031v-0.381v-0.088V25.75v-11V14V9H0z M8.65,16.054   c0-2.424,1.964-4.388,4.387-4.388c2.424,0,4.388,1.964,4.388,4.388v1.372h-0.231H15.89h-0.761v-1.55   c0-1.155-0.936-2.092-2.092-2.092c-1.155,0-2.092,0.937-2.092,2.092v1.55H9.75H8.879H8.65V16.054z M19.802,28.319h-6.765v0.041   c-1.052,0-1.953-0.618-2.381-1.508h4.762h1.667h0.913c0.084-0.368,0.133-0.748,0.133-1.142c0-2.812-2.281-5.094-5.094-5.094   c-2.813,0-5.094,2.281-5.094,5.094c0,2.814,2.281,5.094,5.094,5.094h6.748c-0.09,0.877-0.821,1.562-1.721,1.562H8.011   c-0.96,0-1.739-0.779-1.739-1.738v-9.835c0-0.96,0.778-1.738,1.739-1.738h10.052c0.96,0,1.739,0.778,1.739,1.738V28.319z    M10.715,24.462c0.448-0.829,1.314-1.399,2.322-1.399c1.009,0,1.875,0.57,2.322,1.399H10.715z M26.051,30.792h-2.526v5.542h-2.527   V25.738c0-2.79,2.263-5.053,5.053-5.053c2.791,0,5.054,2.263,5.054,5.053C31.104,28.529,28.842,30.792,26.051,30.792z    M38.548,30.819h-1.031h-2.242h-5.528c0.809-0.622,1.428-1.479,1.743-2.473h3.965h2.062h1.031c0.391,0,0.707-0.316,0.707-0.707   c0-0.378-0.299-0.681-0.672-0.699h-2.217h-1.032c-1.756,0-3.18-1.423-3.18-3.178c0-1.756,1.424-3.179,3.18-3.179h5.044v2.479   h-5.044v-0.006c-0.391,0-0.707,0.315-0.707,0.706s0.316,0.706,0.707,0.706h1.032h2.062h0.003l0.003,0.003   c0.039-0.001,0.076-0.01,0.114-0.01c1.756,0,3.18,1.422,3.18,3.178S40.304,30.819,38.548,30.819z" fill="#241F20"/></g></svg>
